<?xml version="1.0" encoding="UTF-8"?>
<svg id="Layer_2" data-name="Layer 2" xmlns="http://www.w3.org/2000/svg" viewBox="0 0 790.11 415.84">
  <defs>
    <style>
      .cls-1 {
        fill: #fff;
        stroke-width: 0px;
      }
    </style>
  </defs>
  <g id="Layer_1-2" data-name="Layer 1">
    <g>
      <g>
        <path class="cls-1" d="M773.55,29.77c0-3.64-1.7-5.04-5.27-5.31v-.07c3.74-.44,5.92-2.45,5.92-5.48,0-4.02-3.4-6.19-9.56-6.19h-6.87v22.46h4.25v-9.22h3.2c2.89,0,4.02,1.09,4.02,4.12v1.57c0,1.7.34,2.82.95,3.54h4.39c-.68-.92-1.02-2.14-1.02-3.88v-1.53ZM764.53,22.93h-2.52v-7.01h2.52c3.47,0,5.14,1.09,5.14,3.51s-1.67,3.51-5.14,3.51Z"/>
        <path class="cls-1" d="M766.16,0c-13.21,0-23.95,10.74-23.95,23.95s10.74,23.95,23.95,23.95,23.95-10.74,23.95-23.95-10.74-23.95-23.95-23.95ZM785.78,23.95c0,10.82-8.8,19.62-19.62,19.62s-19.62-8.8-19.62-19.62,8.8-19.61,19.62-19.61,19.62,8.8,19.62,19.61Z"/>
      </g>
      <g>
        <path class="cls-1" d="M153.79,349.56h245.93c-19.45-11.05-36.23-26.29-49.27-44.19-20.55-27.18-32.48-60.98-32.48-97.44,0-90.15,73.35-163.73,163.73-163.73h225.38V0h-225.38c-114.68,0-207.92,93.47-207.92,207.92,0,35.13,8.84,68.28,24.3,97.44h-144.29c-23.86,0-43.31-19.22-43.31-43.09V0h-44.19v262.28c0,48.17,39.11,87.28,87.5,87.28Z"/>
        <path class="cls-1" d="M481.69,110.48h225.38v-44.19h-225.38c-78.22,0-141.63,63.64-141.63,141.63,0,37.78,14.8,72.03,39.11,97.44,25.63,27.18,62.09,44.19,102.52,44.19h140.97c36.01,0,65.18-29.17,65.18-65.18s-29.17-65.4-65.18-65.4h-140.97v44.19h140.97c11.71,0,20.99,9.5,20.99,21.21s-9.28,20.99-20.99,20.99h-140.97c-53.69,0-97.44-43.53-97.44-97.44s43.75-97.44,97.44-97.44Z"/>
        <path class="cls-1" d="M622.67,152.68h-140.97v44.19h140.97c48.17,0,87.28,39.33,87.28,87.5s-39.11,87.28-87.28,87.28H153.79c-60.54,0-109.59-49.05-109.59-109.37V0H0v262.28c0,84.63,68.94,153.57,153.79,153.57h468.88c72.47,0,131.47-59,131.47-131.47s-59-131.69-131.47-131.69Z"/>
      </g>
    </g>
  </g>
</svg>